<?xml version="1.0" standalone="no"?>
<!DOCTYPE svg PUBLIC "-//W3C//DTD SVG 20010904//EN"
 "http://www.w3.org/TR/2001/REC-SVG-20010904/DTD/svg10.dtd">
<svg version="1.0" xmlns="http://www.w3.org/2000/svg"
 width="512.000000pt" height="512.000000pt" viewBox="0 0 512.000000 512.000000"
 preserveAspectRatio="xMidYMid meet">

<g transform="translate(0.000000,512.000000) scale(0.100000,-0.100000)"
fill="#000000" stroke="none">
<path d="M578 4780 c-14 -10 -30 -32 -37 -47 -8 -21 -11 -528 -9 -1975 l3
-1948 33 -32 32 -33 1960 0 1960 0 32 33 33 32 3 1948 c2 1447 -1 1954 -9
1975 -7 15 -23 37 -37 47 -24 20 -51 20 -1982 20 -1931 0 -1958 0 -1982 -20z
m1872 -1050 l0 -850 -850 0 -850 0 0 850 0 850 850 0 850 0 0 -850z m1920 0
l0 -850 -850 0 -850 0 0 850 0 850 850 0 850 0 0 -850z m-1920 -1920 l0 -850
-850 0 -850 0 0 850 0 850 850 0 850 0 0 -850z m1920 0 l0 -850 -850 0 -850 0
0 850 0 850 850 0 850 0 0 -850z"/>
<path d="M1553 4254 c-54 -27 -63 -61 -63 -248 l0 -166 -171 0 c-142 0 -176
-3 -199 -17 -58 -34 -68 -116 -21 -164 l29 -29 181 0 181 0 0 -165 c0 -121 4
-175 14 -200 15 -35 59 -65 96 -65 37 0 81 30 96 65 10 25 14 79 14 200 l0
165 181 0 181 0 29 29 c32 32 38 79 17 126 -22 48 -51 55 -238 55 l-170 0 0
166 c0 188 -9 222 -65 248 -41 20 -52 20 -92 0z"/>
<path d="M3038 3823 c-56 -35 -66 -117 -19 -164 l29 -29 472 0 472 0 29 29
c48 49 34 142 -26 169 -19 9 -148 12 -478 12 -403 -1 -455 -2 -479 -17z"/>
<path d="M1229 2192 c-29 -26 -34 -37 -34 -76 0 -45 1 -47 128 -174 l127 -127
-116 -115 c-129 -129 -149 -157 -140 -205 10 -52 50 -85 104 -85 45 0 47 2
174 127 l128 127 128 -127 c127 -125 129 -127 174 -127 54 0 94 33 104 85 9
48 -11 76 -140 205 l-116 115 127 127 c127 127 128 129 128 174 0 39 -5 50
-34 76 -30 27 -39 30 -79 25 -41 -4 -53 -13 -168 -128 l-124 -124 -124 124
c-115 115 -127 124 -168 128 -40 5 -49 2 -79 -25z"/>
<path d="M3045 2208 c-75 -41 -74 -148 2 -187 15 -8 160 -11 473 -11 470 0
477 1 512 44 37 45 16 127 -39 155 -30 15 -920 15 -948 -1z"/>
<path d="M3038 1583 c-56 -35 -66 -117 -19 -164 l29 -29 472 0 472 0 29 29
c48 49 34 142 -26 169 -19 9 -148 12 -478 12 -403 -1 -455 -2 -479 -17z"/>
</g>
</svg>
